<svg xmlns="http://www.w3.org/2000/svg" xmlns:xlink="http://www.w3.org/1999/xlink" width="1080" zoomAndPan="magnify" viewBox="0 0 810 809.999993" height="1080" preserveAspectRatio="xMidYMid meet" version="1.0"><defs><clipPath id="2f432347cc"><path d="M 62.519531 192.457031 L 747.578125 192.457031 L 747.578125 268.214844 L 62.519531 268.214844 Z M 62.519531 192.457031 " clip-rule="nonzero"/></clipPath><clipPath id="6b281317a0"><path d="M 100.398438 192.457031 L 709.601562 192.457031 C 719.648438 192.457031 729.28125 196.449219 736.386719 203.554688 C 743.488281 210.65625 747.480469 220.289062 747.480469 230.335938 C 747.480469 240.382812 743.488281 250.015625 736.386719 257.121094 C 729.28125 264.222656 719.648438 268.214844 709.601562 268.214844 L 100.398438 268.214844 C 90.351562 268.214844 80.71875 264.222656 73.613281 257.121094 C 66.511719 250.015625 62.519531 240.382812 62.519531 230.335938 C 62.519531 220.289062 66.511719 210.65625 73.613281 203.554688 C 80.71875 196.449219 90.351562 192.457031 100.398438 192.457031 Z M 100.398438 192.457031 " clip-rule="nonzero"/></clipPath><clipPath id="e3e46f9866"><path d="M 62.519531 367.121094 L 747.578125 367.121094 L 747.578125 442.878906 L 62.519531 442.878906 Z M 62.519531 367.121094 " clip-rule="nonzero"/></clipPath><clipPath id="483cc9308b"><path d="M 100.398438 367.121094 L 709.601562 367.121094 C 719.648438 367.121094 729.28125 371.113281 736.386719 378.214844 C 743.488281 385.320312 747.480469 394.953125 747.480469 405 C 747.480469 415.046875 743.488281 424.679688 736.386719 431.785156 C 729.28125 438.886719 719.648438 442.878906 709.601562 442.878906 L 100.398438 442.878906 C 90.351562 442.878906 80.71875 438.886719 73.613281 431.785156 C 66.511719 424.679688 62.519531 415.046875 62.519531 405 C 62.519531 394.953125 66.511719 385.320312 73.613281 378.214844 C 80.71875 371.113281 90.351562 367.121094 100.398438 367.121094 Z M 100.398438 367.121094 " clip-rule="nonzero"/></clipPath><clipPath id="9c5d750e1a"><path d="M 62.519531 541.785156 L 747.578125 541.785156 L 747.578125 617.542969 L 62.519531 617.542969 Z M 62.519531 541.785156 " clip-rule="nonzero"/></clipPath><clipPath id="4fbf2e923b"><path d="M 100.398438 541.785156 L 709.601562 541.785156 C 719.648438 541.785156 729.28125 545.777344 736.386719 552.878906 C 743.488281 559.984375 747.480469 569.617188 747.480469 579.664062 C 747.480469 589.710938 743.488281 599.34375 736.386719 606.445312 C 729.28125 613.550781 719.648438 617.542969 709.601562 617.542969 L 100.398438 617.542969 C 90.351562 617.542969 80.71875 613.550781 73.613281 606.445312 C 66.511719 599.34375 62.519531 589.710938 62.519531 579.664062 C 62.519531 569.617188 66.511719 559.984375 73.613281 552.878906 C 80.71875 545.777344 90.351562 541.785156 100.398438 541.785156 Z M 100.398438 541.785156 " clip-rule="nonzero"/></clipPath></defs><rect x="-81" width="972" fill="#ffffff" y="-80.999999" height="971.999992" fill-opacity="1"/><rect x="-81" width="972" fill="#ffffff" y="-80.999999" height="971.999992" fill-opacity="1"/><g clip-path="url(#2f432347cc)"><g clip-path="url(#6b281317a0)"><path fill="#cbab25" d="M 62.519531 192.457031 L 747.578125 192.457031 L 747.578125 268.214844 L 62.519531 268.214844 Z M 62.519531 192.457031 " fill-opacity="1" fill-rule="nonzero"/></g></g><g clip-path="url(#e3e46f9866)"><g clip-path="url(#483cc9308b)"><path fill="#cbab25" d="M 62.519531 367.121094 L 747.578125 367.121094 L 747.578125 442.878906 L 62.519531 442.878906 Z M 62.519531 367.121094 " fill-opacity="1" fill-rule="nonzero"/></g></g><g clip-path="url(#9c5d750e1a)"><g clip-path="url(#4fbf2e923b)"><path fill="#cbab25" d="M 62.519531 541.785156 L 747.578125 541.785156 L 747.578125 617.542969 L 62.519531 617.542969 Z M 62.519531 541.785156 " fill-opacity="1" fill-rule="nonzero"/></g></g></svg>